# xmcd
#
# Track frame offsets:
#	183
#	16650
#	30370
#	57455
#	68508
#	91428
#	111733
#	136593
#	150035
#	169625
#	195483
#	210963
#	228188
#	248235
#	269655
#	293275
#	316770
#	340243
#
# Disc length: 4767 seconds
#
# Revision: 4
# Processed by: cddbd v1.5.2PL0 Copyright (c) Steve Scherf et al.
# Submitted via: audiograbber 1.83.01
#
DISCID=df129d12
DTITLE=Thin Lizzy - Vagabonds Kings Warriors Angels [CD 1) - Vagabonds
DYEAR=2001
DGENRE=Rock
TTITLE0=The Farmer
TTITLE1=The Friendly Ranger At Clontarf Castle
TTITLE2=Remembering Part 1
TTITLE3=Dublin
TTITLE4=Remembering Part 2 (New Day)
TTITLE5=Things Ain't Working Out Down At The Farm
TTITLE6=Buffalo Gal
TTITLE7=Sarah
TTITLE8=Brought Down
TTITLE9=Whiskey In The Jar
TTITLE10=Black Boys On The Corner
TTITLE11=Randolph's Tango
TTITLE12=Broken Dreams
TTITLE13=Vagabond Of The Western World
TTITLE14=Little Girl In Bloom
TTITLE15=Slow Blues
TTITLE16=The Rocker
TTITLE17=Here I Go Again
EXTD=
EXTT0=
EXTT1=
EXTT2=
EXTT3=
EXTT4=
EXTT5=
EXTT6=
EXTT7=
EXTT8=
EXTT9=
EXTT10=
EXTT11=
EXTT12=
EXTT13=
EXTT14=
EXTT15=
EXTT16=
EXTT17=
PLAYORDER=
